<svg width="170" height="119" viewBox="0 0 170 119" fill="none" xmlns="http://www.w3.org/2000/svg">
<rect width="170" height="119" fill="white"/>
<path d="M85.5 14.5C108.111 14.5 128.507 18.8359 143.195 25.7793C157.999 32.7772 166.5 42.1492 166.5 52C166.5 61.8508 157.999 71.2228 143.195 78.2207C128.507 85.1641 108.111 89.5 85.5 89.5C62.8894 89.5 42.4926 85.1641 27.8047 78.2207C13.0015 71.2228 4.5 61.8508 4.5 52C4.5 42.1492 13.0015 32.7772 27.8047 25.7793C42.4926 18.8359 62.8894 14.5 85.5 14.5Z" stroke="#2E7612" stroke-width="3"/>
<path d="M58.0615 60.9531H50.8066L49.3789 66H44.4648L52.3838 41.8281H56.6172L64.3867 66H59.4727L58.0615 60.9531ZM51.9521 56.9854H56.9658L54.4922 48.0869L51.9521 56.9854ZM72.2393 66L64.9346 41.8281H70.0811L74.1816 57.6162L74.5967 59.2432L75.0449 57.5996L79.1621 41.8281H84.3086L76.9873 66H72.2393ZM98.9014 60.9531H91.6465L90.2188 66H85.3047L93.2236 41.8281H97.457L105.227 66H100.312L98.9014 60.9531ZM92.792 56.9854H97.8057L95.332 48.0869L92.792 56.9854ZM114.64 56.0723L112.083 58.8779V66H107.401V41.8281H112.083V52.9014L114.274 49.9463L120.151 41.8281H125.862L117.728 52.5195L126.161 66H120.616L114.64 56.0723Z" fill="#2E7612"/>
<path d="M69.7188 110.508C69.5417 110.716 69.3542 110.906 69.1562 111.078C68.9583 111.245 68.7526 111.391 68.5391 111.516C68.1745 111.734 67.7812 111.896 67.3594 112C66.9375 112.109 66.4948 112.161 66.0312 112.156C65.5625 112.151 65.1302 112.081 64.7344 111.945C64.3438 111.805 63.9922 111.612 63.6797 111.367C63.3672 111.128 63.0938 110.844 62.8594 110.516C62.625 110.188 62.4297 109.831 62.2734 109.445C62.112 109.065 61.9896 108.667 61.9062 108.25C61.8281 107.828 61.7865 107.404 61.7812 106.977V105.656C61.7865 105.234 61.8229 104.815 61.8906 104.398C61.9635 103.977 62.0729 103.573 62.2188 103.188C62.3646 102.802 62.5469 102.445 62.7656 102.117C62.9844 101.784 63.2474 101.495 63.5547 101.25C63.8568 101.01 64.2005 100.82 64.5859 100.68C64.9714 100.539 65.4036 100.469 65.8828 100.469C66.4141 100.469 66.9036 100.552 67.3516 100.719C67.7995 100.88 68.1901 101.112 68.5234 101.414C68.8568 101.721 69.125 102.091 69.3281 102.523C69.5312 102.951 69.6562 103.43 69.7031 103.961H68.2734C68.2161 103.633 68.1276 103.331 68.0078 103.055C67.888 102.773 67.7318 102.534 67.5391 102.336C67.3411 102.138 67.1068 101.984 66.8359 101.875C66.5651 101.76 66.25 101.703 65.8906 101.703C65.5469 101.703 65.2422 101.763 64.9766 101.883C64.7109 101.997 64.4792 102.154 64.2812 102.352C64.0833 102.549 63.9193 102.781 63.7891 103.047C63.6589 103.307 63.5521 103.583 63.4688 103.875C63.3854 104.167 63.3255 104.464 63.2891 104.766C63.2526 105.068 63.2344 105.359 63.2344 105.641V106.977C63.2396 107.263 63.263 107.56 63.3047 107.867C63.3516 108.169 63.4219 108.466 63.5156 108.758C63.6094 109.049 63.7292 109.326 63.875 109.586C64.0208 109.846 64.1979 110.076 64.4062 110.273C64.6094 110.471 64.8464 110.63 65.1172 110.75C65.388 110.865 65.6953 110.924 66.0391 110.93C66.237 110.935 66.4427 110.927 66.6562 110.906C66.875 110.885 67.0859 110.844 67.2891 110.781C67.4922 110.719 67.6823 110.635 67.8594 110.531C68.0365 110.422 68.1849 110.281 68.3047 110.109L68.3203 107.555H66.0078V106.336H69.6953L69.7188 110.508ZM77.5078 103.391C77.7734 103.391 78.0495 103.409 78.3359 103.445C78.6276 103.482 78.8464 103.531 78.9922 103.594L78.7969 105.008C78.5156 104.945 78.2474 104.901 77.9922 104.875C77.7422 104.844 77.4792 104.828 77.2031 104.828C76.849 104.828 76.5286 104.872 76.2422 104.961C75.9557 105.044 75.7057 105.169 75.4922 105.336C75.2995 105.482 75.1302 105.661 74.9844 105.875C74.8438 106.083 74.7266 106.318 74.6328 106.578V112H73.1797V103.547H74.5547L74.6172 104.68L74.625 104.891C74.9688 104.427 75.3802 104.062 75.8594 103.797C76.3438 103.526 76.8932 103.391 77.5078 103.391ZM81.1719 107.695C81.1719 107.086 81.2604 106.521 81.4375 106C81.6146 105.474 81.8698 105.018 82.2031 104.633C82.5312 104.247 82.9323 103.945 83.4062 103.727C83.8802 103.503 84.4141 103.391 85.0078 103.391C85.6068 103.391 86.1432 103.503 86.6172 103.727C87.0964 103.945 87.5026 104.247 87.8359 104.633C88.1641 105.018 88.4167 105.474 88.5938 106C88.7708 106.521 88.8594 107.086 88.8594 107.695V107.867C88.8594 108.477 88.7708 109.042 88.5938 109.562C88.4167 110.083 88.1641 110.536 87.8359 110.922C87.5026 111.307 87.099 111.609 86.625 111.828C86.151 112.047 85.6172 112.156 85.0234 112.156C84.4245 112.156 83.8854 112.047 83.4062 111.828C82.9323 111.609 82.5312 111.307 82.2031 110.922C81.8698 110.536 81.6146 110.083 81.4375 109.562C81.2604 109.042 81.1719 108.477 81.1719 107.867V107.695ZM82.6172 107.867C82.6172 108.284 82.6667 108.682 82.7656 109.062C82.8646 109.438 83.0156 109.768 83.2188 110.055C83.4167 110.341 83.6667 110.568 83.9688 110.734C84.2708 110.901 84.6224 110.984 85.0234 110.984C85.4193 110.984 85.7656 110.901 86.0625 110.734C86.3646 110.568 86.6172 110.341 86.8203 110.055C87.0182 109.768 87.1667 109.438 87.2656 109.062C87.3646 108.682 87.4141 108.284 87.4141 107.867V107.695C87.4141 107.284 87.362 106.891 87.2578 106.516C87.1589 106.135 87.0104 105.802 86.8125 105.516C86.6094 105.229 86.3568 105.003 86.0547 104.836C85.7578 104.664 85.4089 104.578 85.0078 104.578C84.6068 104.578 84.2578 104.664 83.9609 104.836C83.6641 105.003 83.4167 105.229 83.2188 105.516C83.0156 105.802 82.8646 106.135 82.7656 106.516C82.6667 106.891 82.6172 107.284 82.6172 107.695V107.867ZM96.7578 112L96.6719 110.836C96.3906 111.253 96.0391 111.578 95.6172 111.812C95.1953 112.042 94.7083 112.156 94.1562 112.156C93.7135 112.156 93.3125 112.089 92.9531 111.953C92.5938 111.812 92.2865 111.596 92.0312 111.305C91.776 111.013 91.5781 110.643 91.4375 110.195C91.3021 109.742 91.2344 109.201 91.2344 108.57V103.547H92.6797V108.586C92.6797 109.044 92.7161 109.424 92.7891 109.727C92.862 110.029 92.9714 110.268 93.1172 110.445C93.263 110.628 93.4401 110.755 93.6484 110.828C93.862 110.901 94.1068 110.938 94.3828 110.938C94.7057 110.938 94.9948 110.901 95.25 110.828C95.5052 110.75 95.7266 110.643 95.9141 110.508C96.0703 110.398 96.2057 110.268 96.3203 110.117C96.4401 109.961 96.5391 109.792 96.6172 109.609V103.547H98.0703V112H96.7578ZM100.789 115.25V103.547H102.109L102.18 104.469C102.294 104.323 102.419 104.193 102.555 104.078C102.69 103.958 102.836 103.857 102.992 103.773C103.211 103.648 103.453 103.555 103.719 103.492C103.99 103.424 104.279 103.391 104.586 103.391C105.128 103.391 105.607 103.497 106.023 103.711C106.44 103.924 106.789 104.221 107.07 104.602C107.352 104.982 107.565 105.438 107.711 105.969C107.857 106.495 107.93 107.073 107.93 107.703V107.867C107.93 108.471 107.857 109.036 107.711 109.562C107.565 110.083 107.352 110.536 107.07 110.922C106.789 111.307 106.44 111.609 106.023 111.828C105.612 112.047 105.141 112.156 104.609 112.156C104.286 112.156 103.984 112.122 103.703 112.055C103.427 111.987 103.177 111.891 102.953 111.766C102.818 111.688 102.69 111.602 102.57 111.508C102.451 111.409 102.339 111.302 102.234 111.188V115.25H100.789ZM106.484 107.703C106.484 107.292 106.438 106.901 106.344 106.531C106.255 106.156 106.117 105.826 105.93 105.539C105.737 105.258 105.495 105.034 105.203 104.867C104.911 104.701 104.562 104.617 104.156 104.617C103.932 104.617 103.724 104.643 103.531 104.695C103.344 104.747 103.174 104.823 103.023 104.922C102.857 105.021 102.708 105.143 102.578 105.289C102.448 105.435 102.333 105.596 102.234 105.773V109.844C102.323 110 102.424 110.146 102.539 110.281C102.654 110.417 102.784 110.531 102.93 110.625C103.096 110.734 103.281 110.82 103.484 110.883C103.693 110.945 103.922 110.977 104.172 110.977C104.573 110.977 104.919 110.893 105.211 110.727C105.503 110.555 105.742 110.326 105.93 110.039C106.117 109.753 106.255 109.422 106.344 109.047C106.438 108.672 106.484 108.279 106.484 107.867V107.703Z" fill="#2E7612"/>
</svg>
